<?xml version="1.0" encoding="UTF-8"?><svg id="Layer_1" xmlns="http://www.w3.org/2000/svg" xmlns:xlink="http://www.w3.org/1999/xlink" viewBox="0 0 69 69"><defs><style>.cls-1{fill:none;}.cls-2{fill:#ffd900;}.cls-3{fill-rule:evenodd;}.cls-4{fill:#ffd500;}.cls-5{clip-path:url(#clippath);}</style><clipPath id="clippath"><rect class="cls-1" width="69" height="69"/></clipPath></defs><g class="cls-5"><path class="cls-2" d="M0,34.5C0,15.45,15.45,0,34.5,0s34.5,15.45,34.5,34.5-15.45,34.5-34.5,34.5S0,53.55,0,34.5Z"/><path d="M1.66,34.5C1.66,16.36,16.36,1.66,34.5,1.66s32.84,14.7,32.84,32.84-14.7,32.84-32.84,32.84S1.66,52.64,1.66,34.5Z"/><path class="cls-2" d="M3.48,34.5C3.48,17.37,17.37,3.48,34.5,3.48s31.02,13.89,31.02,31.02-13.89,31.02-31.02,31.02S3.48,51.63,3.48,34.5Z"/><path class="cls-3" d="M39.58,60.93c-2.29,0-3.96-1.73-3.96-3.71,0-.29-.02-.42,0-.62h2.16c.63,0,.53.85.53.85,0,.65.71.95,1.24.96.65.02,1.17-.58,1.17-1.23v-1.26c-.42.22-1.24.22-1.24.22-1.96-.05-3.87-1.74-3.87-3.83v-.93c0-2.09,1.78-3.73,3.87-3.73h.09c2.09,0,3.71,1.69,3.71,3.78v5.71c0,2.15-1.52,3.79-3.69,3.81Z"/><path class="cls-4" d="M39.49,50.33h.04c.65,0,1.18.53,1.18,1.18v.75c0,.65-.53,1.18-1.18,1.18h-.04c-.65,0-1.18-.53-1.18-1.18v-.75c0-.65.53-1.18,1.18-1.18Z"/><path class="cls-3" d="M15.91,42.57v-6.05h3.53c2.92,0,3.96,5.3.17,6.05h-3.69ZM15.91,31.91v-5.77h3.99c2.59,0,3.12,4.98.16,5.77h-4.14ZM11.15,21.34v25.75h8.11c6.55,0,9.87-7.93,5.32-12.83,0,0-.01-.01-.01-.04s.03-.05.03-.05c3.78-4.27,2.2-11.78-4.84-12.84h-8.61Z"/><path class="cls-3" d="M49.42,42.57v-6.05h3.5c2.92,0,3.96,5.3.17,6.05h-3.67ZM49.42,31.91v-5.77h3.96c2.58,0,3.12,4.98.16,5.77h-4.12ZM44.64,21.34v25.75h8.11c6.55,0,9.87-7.93,5.32-12.83,0,0-.01-.01-.01-.04s.03-.05.03-.05c3.78-4.27,2.2-11.78-4.84-12.84h-8.61Z"/><path class="cls-3" d="M29.42,47.65h.09c2.09,0,3.78,1.69,3.78,3.78v5.71c0,2.09-1.69,3.78-3.78,3.78h-.09c-2.09,0-3.78-1.69-3.78-3.78v-5.71c0-2.09,1.69-3.78,3.78-3.78Z"/><path class="cls-4" d="M29.44,50.36h.04c.65,0,1.18.53,1.18,1.18v5.67c0,.65-.53,1.18-1.18,1.18h-.04c-.65,0-1.18-.53-1.18-1.18v-5.67c0-.65.53-1.18,1.18-1.18Z"/><path class="cls-3" d="M24.22,8.48l8.44,26.11h3.65l8.34-26.11h-5.11l-5.07,17.43-5.03-17.43h-5.22Z"/></g></svg>